<svg width="172" height="172" viewBox="0 0 172 172" fill="none" xmlns="http://www.w3.org/2000/svg">
<g clip-path="url(#clip0_34_460)">
<path d="M161.25 16.091L118.212 16.0911V5.37626C118.212 2.40588 115.807 0 112.837 0C109.868 0 107.462 2.40588 107.462 5.37626V16.0885H64.4624V5.37626C64.4624 2.40588 62.0571 0 59.0874 0C56.1177 0 53.7124 2.40588 53.7124 5.37626V16.0885H10.75C4.81331 16.0885 0 20.9029 0 26.841V161.247C0 167.185 4.81331 172 10.75 172H161.25C167.187 172 172 167.185 172 161.247V26.841C172 20.9054 167.187 16.091 161.25 16.091ZM161.25 161.247H10.75V26.841H53.7124V32.2576C53.7124 35.2278 56.1177 37.6338 59.0874 37.6338C62.0571 37.6338 64.4624 35.2278 64.4624 32.2576V26.8437H107.462V32.2602C107.462 35.2306 109.868 37.6365 112.837 37.6365C115.807 37.6365 118.212 35.2306 118.212 32.2602V26.8437H161.25V161.247ZM123.625 85.9824H134.375C137.342 85.9824 139.75 83.5738 139.75 80.6061V69.8536C139.75 66.8859 137.342 64.4773 134.375 64.4773H123.625C120.658 64.4773 118.25 66.8859 118.25 69.8536V80.6061C118.25 83.5738 120.658 85.9824 123.625 85.9824ZM123.625 128.99H134.375C137.342 128.99 139.75 126.584 139.75 123.613V112.861C139.75 109.893 137.342 107.485 134.375 107.485H123.625C120.658 107.485 118.25 109.893 118.25 112.861V123.613C118.25 126.587 120.658 128.99 123.625 128.99ZM91.375 107.485H80.625C77.658 107.485 75.25 109.893 75.25 112.861V123.613C75.25 126.584 77.658 128.99 80.625 128.99H91.375C94.342 128.99 96.75 126.584 96.75 123.613V112.861C96.75 109.896 94.342 107.485 91.375 107.485ZM91.375 64.4773H80.625C77.658 64.4773 75.25 66.8859 75.25 69.8536V80.6061C75.25 83.5738 77.658 85.9824 80.625 85.9824H91.375C94.342 85.9824 96.75 83.5738 96.75 80.6061V69.8536C96.75 66.8832 94.342 64.4773 91.375 64.4773ZM48.375 64.4773H37.625C34.658 64.4773 32.25 66.8859 32.25 69.8536V80.6061C32.25 83.5738 34.658 85.9824 37.625 85.9824H48.375C51.342 85.9824 53.75 83.5738 53.75 80.6061V69.8536C53.75 66.8832 51.342 64.4773 48.375 64.4773ZM48.375 107.485H37.625C34.658 107.485 32.25 109.893 32.25 112.861V123.613C32.25 126.584 34.658 128.99 37.625 128.99H48.375C51.342 128.99 53.75 126.584 53.75 123.613V112.861C53.75 109.896 51.342 107.485 48.375 107.485Z" fill="#1E1B4B"/>
</g>
<defs>
<clipPath id="clip0_34_460">
<rect width="172" height="172" rx="24" fill="white"/>
</clipPath>
</defs>
</svg>
