<svg width="253" height="214" viewBox="0 0 253 214" fill="none" xmlns="http://www.w3.org/2000/svg">
<path fill-rule="evenodd" clip-rule="evenodd" d="M31.0496 54.6435L105.799 3.27731C109.812 0.520551 114.777 -0.559224 119.601 0.275431C124.425 1.11009 128.714 3.79083 131.524 7.72817L143.315 24.2489C143.487 24.4907 143.652 24.7369 143.809 24.9877L31.0496 54.6435ZM5.74053 114.213L0.62791 95.4853C-0.638569 90.8405 0.0269592 85.8922 2.47809 81.7289C4.92922 77.5656 8.96518 74.5284 13.6981 73.2854L201.059 24.0178C205.792 22.7732 210.834 23.4244 215.077 25.8282C219.32 28.2319 222.417 32.1914 223.685 36.8355L229.001 56.3159C229.752 59.0661 229.661 61.9724 228.741 64.6724C227.82 67.3725 226.11 69.7469 223.824 71.4996C220.231 74.2498 217.547 77.9815 216.11 82.2251C214.673 86.4687 214.547 91.0347 215.748 95.3483C216.949 99.662 219.424 103.531 222.86 106.467C226.297 109.404 230.541 111.277 235.06 111.852C237.851 112.209 240.471 113.371 242.589 115.191C244.707 117.01 246.227 119.405 246.957 122.073L252.37 141.911C253.639 146.555 252.975 151.504 250.526 155.668C248.076 159.832 244.042 162.871 239.309 164.116L51.9389 213.383C47.2072 214.626 42.166 213.974 37.924 211.571C33.6819 209.167 30.5863 205.209 29.3177 200.565L24.2236 181.901C23.4184 178.964 23.4958 175.861 24.4463 172.966C25.3968 170.071 27.18 167.507 29.581 165.584C33.031 162.82 35.5933 159.137 36.9592 154.977C38.3252 150.817 38.4365 146.358 37.2798 142.138C36.1232 137.917 33.7478 134.115 30.4399 131.188C27.1319 128.262 23.0325 126.337 18.6352 125.644C15.5933 125.163 12.7581 123.828 10.4711 121.802C8.18415 119.775 6.54293 117.143 5.74515 114.222M169.598 83.9049C171.377 83.4616 173.048 82.6761 174.514 81.594C175.981 80.5119 177.213 79.1547 178.141 77.6012C179.069 76.0478 179.673 74.3289 179.918 72.5445C180.164 70.7601 180.045 68.9456 179.571 67.2064C179.096 65.4671 178.273 63.8378 177.152 62.4129C176.03 60.988 174.631 59.796 173.036 58.906C171.441 58.016 169.682 57.4457 167.86 57.2283C166.039 57.0108 164.192 57.1506 162.426 57.6394C158.92 58.6101 155.944 60.897 154.143 64.0051C152.342 67.1132 151.861 70.7923 152.804 74.2458C153.747 77.6994 156.039 80.6494 159.182 82.4572C162.325 84.2651 166.067 84.7852 169.598 83.9049ZM179.159 118.932C180.916 118.47 182.564 117.673 184.008 116.586C185.452 115.499 186.663 114.144 187.573 112.597C188.483 111.051 189.074 109.344 189.312 107.574C189.55 105.803 189.43 104.004 188.959 102.279C188.488 100.555 187.676 98.9375 186.569 97.5206C185.461 96.1038 184.08 94.9148 182.505 94.0217C180.929 93.1286 179.19 92.5488 177.386 92.3155C175.582 92.0821 173.748 92.1997 171.991 92.6616C168.441 93.595 165.415 95.8741 163.577 98.9974C161.74 102.121 161.242 105.832 162.193 109.316C163.144 112.8 165.466 115.77 168.649 117.573C171.831 119.376 175.609 119.865 179.159 118.932ZM188.728 153.954C190.511 153.515 192.187 152.733 193.659 151.652C195.131 150.571 196.369 149.214 197.301 147.659C198.233 146.104 198.841 144.383 199.088 142.595C199.336 140.808 199.218 138.99 198.743 137.247C198.267 135.504 197.443 133.872 196.318 132.445C195.194 131.018 193.791 129.825 192.192 128.936C190.592 128.046 188.829 127.478 187.004 127.263C185.178 127.049 183.328 127.194 181.56 127.688C178.063 128.667 175.099 130.955 173.306 134.059C171.512 137.164 171.035 140.835 171.975 144.282C172.916 147.729 175.2 150.675 178.334 152.484C181.468 154.294 185.201 154.822 188.728 153.954Z" fill="#1E1B4B"/>
</svg>
