<svg width="176" height="185" viewBox="0 0 176 185" fill="none" xmlns="http://www.w3.org/2000/svg">
<path d="M29.2469 30.8333H73.1172V77.0833H29.2469V30.8333ZM146.234 30.8333V77.0833H102.364V30.8333H146.234ZM102.364 115.625H116.987V100.208H102.364V84.7917H116.987V100.208H131.611V84.7917H146.234V100.208H131.611V115.625H146.234V138.75H131.611V154.167H116.987V138.75H95.0523V154.167H80.4289V123.333H102.364V115.625ZM116.987 115.625V138.75H131.611V115.625H116.987ZM29.2469 154.167V107.917H73.1172V154.167H29.2469ZM43.8703 46.25V61.6667H58.4937V46.25H43.8703ZM116.987 46.25V61.6667H131.611V46.25H116.987ZM43.8703 123.333V138.75H58.4937V123.333H43.8703ZM29.2469 84.7917H43.8703V100.208H29.2469V84.7917ZM65.8054 84.7917H95.0523V115.625H80.4289V100.208H65.8054V84.7917ZM80.4289 46.25H95.0523V77.0833H80.4289V46.25ZM14.6234 15.4167V46.25H0V15.4167C0 11.3279 1.54068 7.40662 4.2831 4.51544C7.02553 1.62425 10.7451 0 14.6234 0L43.8703 0V15.4167H14.6234ZM160.858 0C164.736 0 168.456 1.62425 171.198 4.51544C173.941 7.40662 175.481 11.3279 175.481 15.4167V46.25H160.858V15.4167H131.611V0H160.858ZM14.6234 138.75V169.583H43.8703V185H14.6234C10.7451 185 7.02553 183.376 4.2831 180.485C1.54068 177.593 0 173.672 0 169.583V138.75H14.6234ZM160.858 169.583V138.75H175.481V169.583C175.481 173.672 173.941 177.593 171.198 180.485C168.456 183.376 164.736 185 160.858 185H131.611V169.583H160.858Z" fill="#1E1B4B"/>
</svg>
